<svg width="195" height="100" viewBox="0 0 195 100" fill="none" xmlns="http://www.w3.org/2000/svg">
<path d="M29.7283 34.1511C30.4358 31.6748 31.2907 29.5817 32.293 27.8719C33.3543 26.162 34.4745 25.2776 35.6537 25.2187C36.3023 25.2187 36.8919 25.4545 37.4225 25.9262C37.9532 26.3389 38.4248 26.899 38.8376 27.6065C39.2503 28.3141 39.604 29.11 39.8988 29.9944C40.2526 30.8198 40.5769 31.6748 40.8717 32.5592C41.6382 35.2124 42.3162 37.6592 42.9058 39.8997C43.4954 42.0812 44.085 44.2627 44.6746 46.4442C45.2642 48.6258 45.8833 50.8957 46.5318 53.2541C47.2394 55.5535 48.0943 58.0888 49.0966 60.8599C49.5093 58.5015 49.8926 56.2316 50.2463 54.0501C50.659 51.8096 51.0423 49.5691 51.396 47.3286C51.8088 45.0882 52.192 42.7887 52.5457 40.4303C52.9585 38.0719 53.3417 35.5366 53.6955 32.8245C53.7544 32.3528 53.8429 31.5569 53.9608 30.4366C54.0787 29.3164 54.344 28.1961 54.7567 27.0759C55.1695 25.9557 55.7591 25.0123 56.5255 24.2458C57.292 23.4204 58.3533 23.0961 59.7094 23.273C60.4759 23.3909 61.1834 23.5088 61.8319 23.6267C62.4805 23.6857 63.0111 23.8921 63.4239 24.2458C63.8955 24.5406 64.2493 25.0418 64.4851 25.7493C64.721 26.3979 64.8389 27.3117 64.8389 28.4909C63.4828 37.0991 61.9499 45.7957 60.24 54.5807C58.5891 63.3657 56.7319 72.0328 54.6683 80.582C54.4914 81.4075 53.9018 82.1445 52.8995 82.793C51.9562 83.5005 50.8064 83.8543 49.4504 83.8543C48.1532 83.8543 47.1214 83.6185 46.355 83.1468C45.5885 82.6751 44.9694 81.5843 44.4977 79.8745C43.4364 76.6317 42.5226 73.8311 41.7561 71.4727C41.0486 69.1143 40.3705 66.8738 39.722 64.7513C39.0734 62.6287 38.3954 60.4767 37.6878 58.2952C37.0393 56.0547 36.2728 53.4605 35.3884 50.5125C34.2092 53.6963 33.2069 56.4969 32.3815 58.9143C31.615 61.2727 30.819 63.6016 29.9936 65.901C29.1681 68.1415 28.2543 70.4704 27.2519 72.8878C26.2496 75.3051 24.982 78.1057 23.449 81.2895C22.6825 82.7046 21.6802 83.6185 20.4421 84.0312C19.2039 84.5029 17.9952 84.5323 16.816 84.1196C15.6368 83.7659 14.5756 82.9994 13.6322 81.8202C12.6888 80.641 12.1287 79.108 11.9518 77.2213C11.1854 70.323 10.242 63.1004 9.12176 55.5535C8.00152 47.9477 7.17608 39.5754 6.64545 30.4366C6.58649 28.4909 7.05816 27.1054 8.06048 26.2799C9.12176 25.3955 10.301 25.0418 11.5981 25.2187C12.9542 25.3366 14.2218 25.9262 15.401 26.9875C16.5802 28.0487 17.2877 29.5227 17.5236 31.4095C18.29 37.0106 18.7912 42.4644 19.027 47.7708C19.3218 53.0772 19.7935 58.4426 20.4421 63.8669L29.7283 34.1511ZM80.6765 82.6161C80.028 82.793 79.232 82.9404 78.2887 83.0583C77.3453 83.2352 76.3135 83.3237 75.1933 83.3237C74.132 83.3237 73.0117 83.2057 71.8326 82.9699C70.7123 82.7341 69.651 82.2919 68.6487 81.6433C68.1181 81.2895 67.7348 80.7884 67.499 80.1398C67.3221 79.5502 67.3221 78.9312 67.499 78.2826C67.6759 77.634 68.0002 77.015 68.4718 76.4254C69.0025 75.8358 69.6805 75.3936 70.506 75.0988L73.6898 74.3912C73.6898 72.8583 73.7193 71.3253 73.7782 69.7924C73.8372 68.2004 73.9256 66.5201 74.0435 64.7513C74.0435 63.0415 74.073 60.9189 74.132 58.3836C74.2499 55.7894 74.3383 53.0772 74.3973 50.2471C74.5152 47.4171 74.6331 44.5575 74.7511 41.6685C74.869 38.7794 75.0164 36.1262 75.1933 33.7089C74.1909 33.6499 73.2181 33.5025 72.2748 33.2667C71.3314 33.0308 70.4175 32.6181 69.5331 32.0285C69.0025 31.7337 68.6487 31.2915 68.4718 30.7019C68.3539 30.0534 68.3834 29.4048 68.5603 28.7563C68.7372 28.0487 69.0614 27.4002 69.5331 26.8106C70.0638 26.221 70.7123 25.8083 71.4788 25.5724C73.1886 25.1597 74.6331 24.8354 75.8123 24.5996C77.0505 24.3048 78.2002 24.0984 79.2615 23.9805C80.3228 23.8036 81.4135 23.6562 82.5338 23.5383C83.713 23.4204 85.128 23.273 86.7789 23.0961C88.6656 22.8603 90.1691 23.1256 91.2893 23.8921C92.4096 24.5996 93.1171 25.4545 93.4119 26.4568C93.7656 27.4591 93.7067 28.4615 93.235 29.4638C92.8223 30.4071 91.9968 30.9967 90.7587 31.2326L87.5749 31.8516L87.2211 44.8523L86.5136 72.7109C88.2234 72.6519 89.55 73.0057 90.4934 73.7722C91.4957 74.4797 92.1148 75.3346 92.3506 76.3369C92.6454 77.2803 92.557 78.2236 92.0853 79.167C91.6726 80.0514 90.9061 80.6115 89.7859 80.8474L80.6765 82.6161ZM122.001 76.16C121.942 76.8676 121.854 77.634 121.736 78.4595C121.618 79.226 121.382 79.9335 121.029 80.582C120.675 81.2306 120.174 81.7907 119.525 82.2624C118.877 82.7341 117.992 82.9994 116.872 83.0583C115.693 82.9994 114.72 82.9699 113.953 82.9699C113.187 82.9699 112.538 82.8815 112.008 82.7046C111.477 82.5277 111.064 82.2034 110.77 81.7317C110.475 81.2601 110.239 80.5231 110.062 79.5208C110.062 78.2236 110.062 77.015 110.062 75.8947C110.121 74.7745 110.18 73.6837 110.239 72.6224C110.298 71.5612 110.357 70.4999 110.416 69.4386C110.475 68.3184 110.563 67.1392 110.681 65.901C110.74 64.2501 110.858 62.1865 111.035 59.7102C111.212 57.2339 111.389 54.6102 111.566 51.8391C111.742 49.0679 111.919 46.2379 112.096 43.3488C112.332 40.4598 112.538 37.8066 112.715 35.3892C110.946 35.5072 109.119 35.5661 107.232 35.5661C105.345 35.5072 103.576 35.3892 101.926 35.2124C100.275 34.9765 98.8597 34.5933 97.6805 34.0626C96.5602 33.532 95.8527 32.8245 95.5579 31.9401C94.7325 29.7586 94.8799 28.2846 96.0001 27.5181C97.1204 26.6927 99.3314 26.0146 102.633 25.484C104.992 25.1892 106.996 24.9533 108.647 24.7765C110.357 24.5406 111.86 24.3637 113.157 24.2458C114.514 24.0689 115.722 23.9215 116.784 23.8036C117.904 23.6857 119.083 23.5973 120.321 23.5383C121.559 23.4204 122.945 23.3319 124.478 23.273C126.011 23.1551 127.868 23.0371 130.049 22.9192C133.941 22.6834 136.8 23.0077 138.628 23.8921C140.515 24.7765 141.547 25.8377 141.724 27.0759C141.9 28.2551 141.34 29.4343 140.043 30.6135C138.805 31.7337 137.007 32.4707 134.648 32.8245L124.389 34.328C124.33 36.0968 124.242 37.8066 124.124 39.4575C124.065 41.1084 123.977 43.113 123.859 45.4714L122.001 76.16ZM176.904 77.0444C176.904 75.3936 176.874 74.0375 176.816 72.9762C176.816 71.856 176.845 70.7652 176.904 69.7039C176.963 68.5837 177.022 67.3455 177.081 65.9894C177.199 64.6334 177.346 62.8646 177.523 60.6831C177.641 59.4449 177.494 58.7374 177.081 58.5605C176.727 58.3836 175.99 58.3541 174.87 58.4721C174.575 58.4721 173.691 58.5015 172.217 58.5605C170.743 58.6195 169.151 58.7079 167.441 58.8258C165.79 58.8848 164.198 58.9732 162.665 59.0911C161.191 59.2091 160.277 59.2975 159.924 59.3565C159.157 59.5333 158.597 59.7987 158.243 60.1524C157.889 60.5062 157.654 61.0663 157.536 61.8328C157.418 63.4247 157.3 64.8397 157.182 66.0779C157.064 67.316 156.917 68.5247 156.74 69.7039C156.622 70.8242 156.474 72.0328 156.297 73.33C156.121 74.5681 155.973 76.0126 155.855 77.6635C155.796 78.371 155.708 79.108 155.59 79.8745C155.472 80.7 155.266 81.4664 154.971 82.1739C154.676 82.8815 154.204 83.4711 153.556 83.9427C152.966 84.4144 152.141 84.6797 151.08 84.7387C150.018 84.6797 149.104 84.6503 148.338 84.6503C147.571 84.6503 146.952 84.5323 146.481 84.2965C146.009 84.1196 145.626 83.7953 145.331 83.3237C145.095 82.852 144.889 82.115 144.712 81.1127C144.712 79.6976 144.712 78.4005 144.712 77.2213C144.771 76.0421 144.83 74.8924 144.889 73.7722C144.948 72.593 145.007 71.4138 145.066 70.2346C145.125 68.9964 145.213 67.6698 145.331 66.2548C145.39 64.7808 145.478 62.953 145.596 60.7715C145.714 58.531 145.832 56.1726 145.95 53.6963C146.127 51.161 146.304 48.5668 146.481 45.9136C146.658 43.2014 146.805 40.6072 146.923 38.1309C147.1 35.6546 147.247 33.3846 147.365 31.321C147.542 29.2574 147.689 27.5771 147.807 26.2799C148.161 25.1597 148.515 24.3048 148.869 23.7152C149.222 23.1256 149.664 22.7129 150.195 22.477C150.726 22.2412 151.374 22.1527 152.141 22.2117C152.907 22.2707 153.91 22.3886 155.148 22.5655C156.445 22.8013 157.3 23.3319 157.713 24.1574C158.184 24.9239 158.42 25.6314 158.42 26.2799C158.361 28.2256 158.302 29.9649 158.243 31.4979C158.184 33.0308 158.125 34.5048 158.066 35.9199C158.007 37.3349 157.919 38.8089 157.801 40.3419C157.742 41.8159 157.683 43.4962 157.624 45.383C157.624 45.324 157.624 45.383 157.624 45.5598C157.624 45.6778 157.713 45.8546 157.889 46.0905C158.125 46.2674 158.45 46.4442 158.862 46.6211C159.334 46.739 160.012 46.7685 160.896 46.7096C161.132 46.6506 161.663 46.5916 162.488 46.5327C163.373 46.4737 164.375 46.4148 165.495 46.3558C166.615 46.2968 167.824 46.2379 169.121 46.1789C170.418 46.12 171.598 46.0905 172.659 46.0905C173.72 46.0315 174.605 45.9726 175.312 45.9136C176.079 45.8546 176.491 45.8252 176.55 45.8252C177.081 45.8252 177.464 45.7367 177.7 45.5598C177.995 45.383 178.172 45.1766 178.231 44.9408C178.348 44.646 178.407 44.3512 178.407 44.0564C178.466 43.7616 178.496 43.5552 178.496 43.4373C178.496 42.9656 178.555 41.9338 178.673 40.3419C178.85 38.691 179.027 36.9812 179.203 35.2124C179.439 33.3846 179.646 31.7337 179.822 30.2597C179.999 28.7268 180.147 27.7834 180.265 27.4297C180.383 26.3684 180.53 25.4545 180.707 24.688C180.943 23.8626 181.355 23.214 181.945 22.7423C182.535 22.2707 183.331 21.9759 184.333 21.8579C185.394 21.74 186.839 21.8285 188.666 22.1233C189.079 22.1822 189.403 22.4181 189.639 22.8308C189.934 23.2435 190.14 23.7152 190.258 24.2458C190.435 24.7765 190.553 25.3071 190.612 25.8377C190.671 26.3094 190.701 26.6632 190.701 26.899C190.583 29.1395 190.494 31.1736 190.435 33.0014C190.435 34.7702 190.406 36.5095 190.347 38.2193C190.347 39.9292 190.317 41.698 190.258 43.5257C190.199 45.3535 190.111 47.3876 189.993 49.6281C189.875 52.3992 189.757 55.0229 189.639 57.4992C189.521 59.9166 189.374 62.3339 189.197 64.7513C189.02 67.1097 188.784 69.527 188.49 72.0034C188.254 74.4207 187.959 77.015 187.605 79.7861V80.1398C187.428 80.7294 187.251 81.3485 187.075 81.9971C186.898 82.6456 186.632 83.2352 186.279 83.7659C185.984 84.3555 185.571 84.8271 185.04 85.1809C184.51 85.5347 183.773 85.7115 182.829 85.7115C181.473 85.7115 180.412 85.5936 179.646 85.3578C178.938 85.1219 178.378 84.6797 177.965 84.0312C177.611 83.3826 177.376 82.4982 177.258 81.378C177.14 80.2578 177.022 78.8132 176.904 77.0444Z" fill="#484848"/>
<path d="M25.4707 29.9841C26.1782 27.5078 27.0331 25.4147 28.0354 23.7049C29.0967 21.995 30.217 21.1106 31.3962 21.0517C32.0447 21.0517 32.6343 21.2875 33.165 21.7592C33.6956 22.1719 34.1673 22.732 34.58 23.4395C34.9927 24.1471 35.3465 24.943 35.6413 25.8274C35.995 26.6529 36.3193 27.5078 36.6141 28.3922C37.3806 31.0454 38.0586 33.4922 38.6482 35.7327C39.2378 37.9142 39.8274 40.0957 40.417 42.2772C41.0066 44.4588 41.6257 46.7287 42.2743 49.0871C42.9818 51.3865 43.8367 53.9218 44.839 56.6929C45.2517 54.3345 45.635 52.0646 45.9887 49.8831C46.4015 47.6426 46.7847 45.4021 47.1385 43.1616C47.5512 40.9212 47.9344 38.6217 48.2882 36.2633C48.7009 33.9049 49.0841 31.3697 49.4379 28.6575C49.4969 28.1858 49.5853 27.3899 49.7032 26.2696C49.8211 25.1494 50.0865 24.0291 50.4992 22.9089C50.9119 21.7887 51.5015 20.8453 52.268 20.0788C53.0345 19.2534 54.0957 18.9291 55.4518 19.106C56.2183 19.2239 56.9258 19.3418 57.5744 19.4597C58.2229 19.5187 58.7536 19.7251 59.1663 20.0788C59.638 20.3736 59.9917 20.8748 60.2276 21.5823C60.4634 22.2309 60.5813 23.1447 60.5813 24.3239C59.2253 32.9321 57.6923 41.6287 55.9825 50.4137C54.3316 59.1987 52.4743 67.8658 50.4107 76.415C50.2339 77.2405 49.6443 77.9775 48.6419 78.626C47.6986 79.3336 46.5489 79.6873 45.1928 79.6873C43.8957 79.6873 42.8639 79.4515 42.0974 78.9798C41.3309 78.5081 40.7118 77.4174 40.2402 75.7075C39.1789 72.4647 38.265 69.6641 37.4985 67.3057C36.791 64.9473 36.113 62.7069 35.4644 60.5843C34.8158 58.4617 34.1378 56.3097 33.4303 54.1282C32.7817 51.8877 32.0152 49.2935 31.1308 46.3455C29.9516 49.5293 28.9493 52.3299 28.1239 54.7473C27.3574 57.1057 26.5614 59.4346 25.736 61.734C24.9106 63.9745 23.9967 66.3034 22.9944 68.7208C21.9921 71.1381 20.7244 73.9387 19.1915 77.1226C18.425 78.5376 17.4227 79.4515 16.1845 79.8642C14.9463 80.3359 13.7377 80.3654 12.5585 79.9526C11.3793 79.5989 10.318 78.8324 9.37463 77.6532C8.43127 76.474 7.87115 74.941 7.69427 73.0543C6.92779 66.156 5.98443 58.9334 4.86419 51.3865C3.74396 43.7807 2.91852 35.4084 2.38788 26.2696C2.32892 24.3239 2.8006 22.9384 3.80292 22.1129C4.86419 21.2285 6.04339 20.8748 7.34051 21.0517C8.69659 21.1696 9.96423 21.7592 11.1434 22.8205C12.3226 23.8817 13.0301 25.3557 13.266 27.2425C14.0325 32.8437 14.5336 38.2974 14.7695 43.6038C15.0643 48.9102 15.5359 54.2756 16.1845 59.6999L25.4707 29.9841ZM76.419 78.4492C75.7704 78.626 74.9745 78.7734 74.0311 78.8914C73.0877 79.0682 72.0559 79.1567 70.9357 79.1567C69.8744 79.1567 68.7542 79.0388 67.575 78.8029C66.4547 78.5671 65.3935 78.1249 64.3911 77.4763C63.8605 77.1226 63.4773 76.6214 63.2414 75.9728C63.0645 75.3832 63.0645 74.7642 63.2414 74.1156C63.4183 73.467 63.7426 72.848 64.2143 72.2584C64.7449 71.6688 65.4229 71.2266 66.2484 70.9318L69.4322 70.2242C69.4322 68.6913 69.4617 67.1583 69.5207 65.6254C69.5796 64.0335 69.6681 62.3531 69.786 60.5843C69.786 58.8745 69.8155 56.7519 69.8744 54.2166C69.9923 51.6224 70.0808 48.9102 70.1397 46.0802C70.2577 43.2501 70.3756 40.3905 70.4935 37.5015C70.6114 34.6124 70.7588 31.9593 70.9357 29.5419C69.9334 29.4829 68.9605 29.3355 68.0172 29.0997C67.0738 28.8639 66.1599 28.4511 65.2755 27.8615C64.7449 27.5667 64.3911 27.1245 64.2143 26.5349C64.0963 25.8864 64.1258 25.2378 64.3027 24.5893C64.4796 23.8817 64.8039 23.2332 65.2755 22.6436C65.8062 22.054 66.4547 21.6413 67.2212 21.4054C68.9311 20.9927 70.3756 20.6684 71.5548 20.4326C72.7929 20.1378 73.9427 19.9314 75.0039 19.8135C76.0652 19.6366 77.156 19.4892 78.2762 19.3713C79.4554 19.2534 80.8704 19.106 82.5213 18.9291C84.408 18.6933 85.9115 18.9586 87.0318 19.7251C88.152 20.4326 88.8595 21.2875 89.1543 22.2898C89.5081 23.2921 89.4491 24.2945 88.9774 25.2968C88.5647 26.2401 87.7393 26.8297 86.5011 27.0656L83.3173 27.6847L82.9635 40.6853L82.256 68.5439C83.9658 68.4849 85.2924 68.8387 86.2358 69.6052C87.2381 70.3127 87.8572 71.1676 88.093 72.1699C88.3878 73.1133 88.2994 74.0566 87.8277 75C87.415 75.8844 86.6485 76.4445 85.5283 76.6804L76.419 78.4492ZM117.744 71.993C117.685 72.7006 117.596 73.467 117.479 74.2925C117.361 75.059 117.125 75.7665 116.771 76.415C116.417 77.0636 115.916 77.6237 115.268 78.0954C114.619 78.5671 113.735 78.8324 112.614 78.8914C111.435 78.8324 110.462 78.8029 109.696 78.8029C108.929 78.8029 108.281 78.7145 107.75 78.5376C107.22 78.3607 106.807 78.0364 106.512 77.5648C106.217 77.0931 105.981 76.3561 105.805 75.3538C105.805 74.0566 105.805 72.848 105.805 71.7277C105.863 70.6075 105.922 69.5167 105.981 68.4554C106.04 67.3942 106.099 66.3329 106.158 65.2716C106.217 64.1514 106.306 62.9722 106.424 61.734C106.483 60.0831 106.6 58.0195 106.777 55.5432C106.954 53.0669 107.131 50.4432 107.308 47.6721C107.485 44.901 107.662 42.0709 107.839 39.1818C108.074 36.2928 108.281 33.6396 108.458 31.2223C106.689 31.3402 104.861 31.3991 102.974 31.3991C101.088 31.3402 99.3189 31.2223 97.668 31.0454C96.0172 30.8095 94.6021 30.4263 93.4229 29.8957C92.3027 29.365 91.5952 28.6575 91.3004 27.7731C90.4749 25.5916 90.6223 24.1176 91.7426 23.3511C92.8628 22.5257 95.0738 21.8476 98.3756 21.317C100.734 21.0222 102.739 20.7863 104.389 20.6095C106.099 20.3736 107.603 20.1967 108.9 20.0788C110.256 19.9019 111.465 19.7545 112.526 19.6366C113.646 19.5187 114.825 19.4303 116.064 19.3713C117.302 19.2534 118.687 19.1649 120.22 19.106C121.753 18.9881 123.61 18.8701 125.792 18.7522C129.683 18.5164 132.543 18.8407 134.371 19.7251C136.257 20.6095 137.289 21.6707 137.466 22.9089C137.643 24.0881 137.083 25.2673 135.786 26.4465C134.547 27.5667 132.749 28.3037 130.391 28.6575L120.132 30.161C120.073 31.9298 119.984 33.6396 119.866 35.2905C119.807 36.9414 119.719 38.946 119.601 41.3044L117.744 71.993ZM172.646 72.8774C172.646 71.2266 172.617 69.8705 172.558 68.8092C172.558 67.689 172.587 66.5982 172.646 65.5369C172.705 64.4167 172.764 63.1785 172.823 61.8225C172.941 60.4664 173.089 58.6976 173.265 56.5161C173.383 55.2779 173.236 54.5704 172.823 54.3935C172.47 54.2166 171.733 54.1871 170.612 54.3051C170.317 54.3051 169.433 54.3345 167.959 54.3935C166.485 54.4525 164.893 54.5409 163.183 54.6588C161.532 54.7178 159.941 54.8062 158.408 54.9241C156.934 55.0421 156.02 55.1305 155.666 55.1895C154.899 55.3663 154.339 55.6317 153.986 55.9854C153.632 56.3392 153.396 56.8993 153.278 57.6658C153.16 59.2577 153.042 60.6727 152.924 61.9109C152.806 63.1491 152.659 64.3577 152.482 65.5369C152.364 66.6572 152.217 67.8658 152.04 69.163C151.863 70.4011 151.716 71.8456 151.598 73.4965C151.539 74.204 151.45 74.941 151.332 75.7075C151.214 76.533 151.008 77.2994 150.713 78.007C150.419 78.7145 149.947 79.3041 149.298 79.7758C148.709 80.2474 147.883 80.5128 146.822 80.5717C145.761 80.5128 144.847 80.4833 144.08 80.4833C143.314 80.4833 142.695 80.3654 142.223 80.1295C141.751 79.9526 141.368 79.6284 141.073 79.1567C140.838 78.685 140.631 77.948 140.454 76.9457C140.454 75.5306 140.454 74.2335 140.454 73.0543C140.513 71.8751 140.572 70.7254 140.631 69.6052C140.69 68.426 140.749 67.2468 140.808 66.0676C140.867 64.8294 140.955 63.5028 141.073 62.0878C141.132 60.6138 141.221 58.786 141.339 56.6045C141.457 54.364 141.575 52.0056 141.692 49.5293C141.869 46.994 142.046 44.3998 142.223 41.7466C142.4 39.0344 142.547 36.4402 142.665 33.9639C142.842 31.4876 142.99 29.2176 143.107 27.154C143.284 25.0904 143.432 23.4101 143.55 22.1129C143.903 20.9927 144.257 20.1378 144.611 19.5482C144.965 18.9586 145.407 18.5459 145.938 18.31C146.468 18.0742 147.117 17.9857 147.883 18.0447C148.65 18.1037 149.652 18.2216 150.89 18.3985C152.187 18.6343 153.042 19.1649 153.455 19.9904C153.927 20.7569 154.162 21.4644 154.162 22.1129C154.104 24.0586 154.045 25.7979 153.986 27.3309C153.927 28.8639 153.868 30.3379 153.809 31.7529C153.75 33.1679 153.661 34.6419 153.543 36.1749C153.484 37.6489 153.425 39.3292 153.367 41.216C153.367 41.157 153.367 41.216 153.367 41.3928C153.367 41.5108 153.455 41.6876 153.632 41.9235C153.868 42.1004 154.192 42.2772 154.605 42.4541C155.076 42.572 155.754 42.6015 156.639 42.5426C156.875 42.4836 157.405 42.4246 158.231 42.3657C159.115 42.3067 160.117 42.2478 161.238 42.1888C162.358 42.1298 163.567 42.0709 164.864 42.0119C166.161 41.953 167.34 41.9235 168.401 41.9235C169.463 41.8645 170.347 41.8056 171.054 41.7466C171.821 41.6876 172.234 41.6582 172.293 41.6582C172.823 41.6582 173.207 41.5697 173.442 41.3928C173.737 41.216 173.914 41.0096 173.973 40.7738C174.091 40.479 174.15 40.1842 174.15 39.8894C174.209 39.5946 174.238 39.3882 174.238 39.2703C174.238 38.7986 174.297 37.7668 174.415 36.1749C174.592 34.524 174.769 32.8142 174.946 31.0454C175.182 29.2176 175.388 27.5667 175.565 26.0927C175.742 24.5598 175.889 23.6164 176.007 23.2627C176.125 22.2014 176.272 21.2875 176.449 20.521C176.685 19.6956 177.098 19.047 177.687 18.5754C178.277 18.1037 179.073 17.8089 180.075 17.691C181.137 17.573 182.581 17.6615 184.409 17.9563C184.822 18.0152 185.146 18.2511 185.382 18.6638C185.677 19.0765 185.883 19.5482 186.001 20.0788C186.178 20.6095 186.296 21.1401 186.355 21.6707C186.414 22.1424 186.443 22.4962 186.443 22.732C186.325 24.9725 186.237 27.0066 186.178 28.8344C186.178 30.6032 186.148 32.3425 186.089 34.0523C186.089 35.7622 186.06 37.531 186.001 39.3587C185.942 41.1865 185.853 43.2206 185.736 45.4611C185.618 48.2322 185.5 50.8559 185.382 53.3322C185.264 55.7496 185.116 58.1669 184.94 60.5843C184.763 62.9427 184.527 65.3601 184.232 67.8364C183.996 70.2537 183.701 72.848 183.348 75.6191V75.9728C183.171 76.5624 182.994 77.1815 182.817 77.8301C182.64 78.4786 182.375 79.0682 182.021 79.5989C181.726 80.1885 181.314 80.6602 180.783 81.0139C180.252 81.3677 179.515 81.5446 178.572 81.5446C177.216 81.5446 176.155 81.4266 175.388 81.1908C174.681 80.955 174.12 80.5128 173.708 79.8642C173.354 79.2156 173.118 78.3312 173 77.211C172.882 76.0908 172.764 74.6462 172.646 72.8774Z" fill="#4CAF50"/>
</svg>
